<svg fill="#6B7280" version="1.1" id="Layer_1" xmlns="http://www.w3.org/2000/svg" xmlns:xlink="http://www.w3.org/1999/xlink" viewBox="-12.18 -12.18 227.36 227.36" xml:space="preserve" stroke="#6B7280" stroke-width="7.511"><g id="SVGRepo_bgCarrier" stroke-width="0"></g><g id="SVGRepo_tracerCarrier" stroke-linecap="round" stroke-linejoin="round"></g><g id="SVGRepo_iconCarrier"> <g> <g> <g> <path d="M113.874,25.377c2.084-2.671,3.376-5.986,3.376-9.627C117.25,7.065,110.185,0,101.5,0S85.75,7.065,85.75,15.75 c0,3.642,1.293,6.956,3.376,9.627C45.752,31.423,12.25,68.738,12.25,113.75c0,49.212,40.038,89.25,89.25,89.25 c49.212,0,89.25-40.038,89.25-89.25C190.75,68.738,157.248,31.423,113.874,25.377z M101.5,7c4.824,0,8.75,3.926,8.75,8.75 s-3.926,8.75-8.75,8.75s-8.75-3.926-8.75-8.75S96.676,7,101.5,7z M101.5,196c-45.353,0-82.25-36.897-82.25-82.25 c0-45.353,36.897-82.25,82.25-82.25s82.25,36.897,82.25,82.25C183.75,159.103,146.853,196,101.5,196z"></path> <rect x="96.25" y="35" width="7" height="14"></rect> <rect x="96.25" y="178.5" width="7" height="14"></rect> <rect x="166.25" y="112" width="14" height="7"></rect> <rect x="22.75" y="112" width="14" height="7"></rect> <path d="M147.168,59.69l-56.921,42.072c-0.138,0.102-0.21,0.258-0.33,0.377c-0.129,0.127-0.296,0.207-0.405,0.355l-42.073,56.923 c-1.03,1.393-0.885,3.329,0.34,4.555c0.678,0.678,1.574,1.025,2.476,1.025c0.726,0,1.456-0.226,2.078-0.685l56.921-42.074 c0.138-0.102,0.21-0.258,0.33-0.377c0.129-0.127,0.296-0.207,0.405-0.355l42.074-56.921c1.03-1.393,0.885-3.329-0.34-4.555 C150.498,58.803,148.562,58.659,147.168,59.69z M66.937,144.811l25.786-34.888l9.1,9.102L66.937,144.811z M106.777,114.075 l-9.1-9.101l34.886-25.786L106.777,114.075z"></path> </g> </g> </g> </g></svg>