<svg viewBox="0 0 24 24" fill="none" xmlns="http://www.w3.org/2000/svg" stroke="#6B7280"><g id="SVGRepo_bgCarrier" stroke-width="0"></g><g id="SVGRepo_tracerCarrier" stroke-linecap="round" stroke-linejoin="round"></g><g id="SVGRepo_iconCarrier"> <path d="M22 15V9C22 4 20 2 15 2H9C4 2 2 4 2 9V15C2 20 4 22 9 22H15C20 22 22 20 22 15Z" stroke="#6B7280" stroke-width="1.8" stroke-linecap="round" stroke-linejoin="round"></path> <path d="M2.52002 7.11011H21.48" stroke="#6B7280" stroke-width="1.8" stroke-linecap="round" stroke-linejoin="round"></path> <path d="M8.52002 2.11011V6.97011" stroke="#6B7280" stroke-width="1.8" stroke-linecap="round" stroke-linejoin="round"></path> <path d="M15.48 2.11011V6.52011" stroke="#6B7280" stroke-width="1.8" stroke-linecap="round" stroke-linejoin="round"></path> <path d="M9.75 14.4501V13.2501C9.75 11.7101 10.84 11.0801 12.17 11.8501L13.21 12.4501L14.25 13.0501C15.58 13.8201 15.58 15.0801 14.25 15.8501L13.21 16.4501L12.17 17.0501C10.84 17.8201 9.75 17.1901 9.75 15.6501V14.4501V14.4501Z" stroke="#6B7280" stroke-width="1.8" stroke-miterlimit="10" stroke-linecap="round" stroke-linejoin="round"></path> </g></svg>